<?xml version="1.0" encoding="UTF-8" standalone="no"?>
<!-- Created with Inkscape (http://www.inkscape.org/) -->

<svg
   xmlns:dc="http://purl.org/dc/elements/1.1/"
   xmlns:cc="http://creativecommons.org/ns#"
   xmlns:rdf="http://www.w3.org/1999/02/22-rdf-syntax-ns#"
   xmlns:svg="http://www.w3.org/2000/svg"
   xmlns="http://www.w3.org/2000/svg"
   xmlns:sodipodi="http://sodipodi.sourceforge.net/DTD/sodipodi-0.dtd"
   xmlns:inkscape="http://www.inkscape.org/namespaces/inkscape"
   version="1.1"
   id="svg3732"
   xml:space="preserve"
   width="5333.3335"
   height="5333.3335"
   viewBox="0 0 5333.3335 5333.3335"
   sodipodi:docname="vecteezy_earth-globes-isolated-on-color-background-flat-planet-earth_6797336.svg"
   inkscape:version="0.92.5 (2060ec1f9f, 2020-04-08)"><metadata
     id="metadata3738"><rdf:RDF><cc:Work
         rdf:about=""><dc:format>image/svg+xml</dc:format><dc:type
           rdf:resource="http://purl.org/dc/dcmitype/StillImage" /><dc:title></dc:title></cc:Work></rdf:RDF></metadata><defs
     id="defs3736" /><sodipodi:namedview
     pagecolor="#ffffff"
     bordercolor="#666666"
     borderopacity="1"
     objecttolerance="10"
     gridtolerance="10"
     guidetolerance="10"
     inkscape:pageopacity="0"
     inkscape:pageshadow="2"
     inkscape:window-width="1080"
     inkscape:window-height="1379"
     id="namedview3734"
     showgrid="false"
     inkscape:zoom="0.17531249"
     inkscape:cx="2666.6667"
     inkscape:cy="2666.6667"
     inkscape:window-x="1920"
     inkscape:window-y="24"
     inkscape:window-maximized="0"
     inkscape:current-layer="g3740" /><g
     id="g3740"
     inkscape:groupmode="layer"
     inkscape:label="ink_ext_XXXXXX"
     transform="matrix(1.3333333,0,0,-1.3333333,0,5333.3333)"><g
       id="g3742"
       transform="scale(0.1)"><g
         id="g3744"
         transform="scale(2.45399)"><path
           d="M 0,16300 H 16300 V 0 H 0 v 16300"
           style="fill:#f6fefc;fill-opacity:1;fill-rule:evenodd;stroke:none"
           id="path3746"
           inkscape:connector-curvature="0" /></g><g
         id="g3748"
         transform="scale(2.12115)"><path
           d="M 15789.8,8608.92 C 15279.5,5231.95 12126.8,2906.91 8749.87,3417.14 5372.9,3927.38 3047.85,7080.07 3558.09,10457 c 510.23,3377 3662.93,5702.1 7039.91,5191.8 3377,-510.2 5702,-3662.9 5191.8,-7039.88"
           style="fill:#ddfbf7;fill-opacity:1;fill-rule:evenodd;stroke:none"
           id="path3750"
           inkscape:connector-curvature="0" /></g><g
         id="g3752"
         transform="scale(2.07156)"><path
           d="M 15807.6,8869.42 C 15315.2,5610.48 12272.7,3366.69 9013.74,3859.1 5754.8,4351.5 3511.02,7394 4003.42,10652.9 c 492.4,3259 3534.9,5502.8 6793.88,5010.4 3258.9,-492.4 5502.7,-3534.9 5010.3,-6793.88"
           style="fill:#9ef2e9;fill-opacity:1;fill-rule:evenodd;stroke:none"
           id="path3754"
           inkscape:connector-curvature="0" /></g><g
         id="g3756"
         transform="scale(2.01899)"><path
           d="M 15827.4,9159.54 C 16300,12287.7 14147.3,15206.7 11019.2,15679.3 7891.07,16151.9 4972.08,13999.2 4499.44,10871.1 4026.8,7742.99 6179.5,4824 9307.62,4351.36 12435.7,3878.73 15354.7,6031.42 15827.4,9159.54"
           style="fill:#70d0f6;fill-opacity:1;fill-rule:evenodd;stroke:none"
           id="path3758"
           inkscape:connector-curvature="0" /></g><path
         d="m 13438.4,10972.3 c -0.7,-4.2 -5.8,-6.1 -9.1,-10 16.7,-7.3 32.3,-15.1 50.7,-21.7 l -41.6,31.7"
         style="fill:#ffffff;fill-opacity:1;fill-rule:evenodd;stroke:none"
         id="path3760"
         inkscape:connector-curvature="0" /><g
         id="g3762"
         transform="scale(1.68931)"><path
           d="m 8970.69,16100.4 71.77,30 c 115.73,-0.2 54.22,77.9 144.49,93.4 102.58,16.4 206.05,76.2 302.77,64.5 78.37,-8.4 134.74,-168.3 230.12,-140.2 -29.22,-32.6 -227.59,-46.8 -265.33,-69 L 9230.38,15947 c -90.15,-6.2 -219.83,72.2 -259.69,153.4"
           style="fill:#4abb6d;fill-opacity:1;fill-rule:evenodd;stroke:none"
           id="path3764"
           inkscape:connector-curvature="0" /></g><g
         id="g3766"
         transform="scale(1.80319)"><path
           d="m 8818.61,9239.27 c -9.92,-55.72 -50.11,-99.68 -85.94,-142.5 -159.84,-190.49 -272.23,-417.18 -326.82,-659.74 -52.39,-231.75 -85.6,-520.93 -306.56,-605.28 -126.93,-47.03 -287.72,-10.75 -381.84,-108.27 -27.2,-31.59 -49.02,-67.7 -64.26,-106.54 -310.11,-698.48 -381.25,-456.81 -593.29,-734.2 -51.53,-67.41 -57.23,-156.72 -48.06,-240.79 7.85,-57.25 22.5,-112.57 43.16,-165.04 -175.01,160.08 -340.6,329.66 -496.47,507.51 -140.72,282.98 -357.01,508.5 -401.98,825.56 -33.59,236.81 79.88,565.22 -22.92,779.08 -85.55,181.29 -233.98,327.15 -319.48,508.73 -118.94,259.73 -101.56,571.07 -248.4,814.65 -81.83,138.46 -213.85,313.66 -105.14,432.26 43.96,49.1 127.9,89.2 106.41,151.1 -7.13,20.3 -24.86,33.8 -38.99,53.3 -50.56,73.8 6.34,168.9 49.12,247.8 l 97.98,450.1 c -130.7,157.1 -223.65,343.2 -270.28,542.5 -27.17,121.6 -64.7,273.7 -187.49,293.8 -18.65,92.7 -37.87,187.6 -56.34,281.4 -18.02,-29.6 -65.18,-72.2 -85.72,-44.2 -3.67,5 -6.97,9.9 -10.6,14.9 258.98,1462.4 998.12,2725.5 2029.57,3650.7 87.76,-40.5 198.57,-96.2 211.68,-91 235.06,93.6 436.33,256.7 666.26,362.8 47.19,22.8 100.13,42.1 152.3,28.5 52.18,-13.5 91.84,-72.3 65.99,-118.4 -11.83,-18.7 -28.98,-33.4 -49.22,-42.3 -276.71,-171.6 -572.85,-313.3 -880.36,-420.8 -37.86,-8.1 -72.02,-28.9 -96.57,-58.9 -38.14,-54.2 0,-134.8 58.57,-165.6 58.57,-30.7 129.31,-28.5 194.45,-23.7 -43.48,-46.8 -71.87,-105.6 -81.42,-168.8 -4.59,-30.4 -4.71,-61.3 -0.47,-91.7 57.74,-14.4 88.61,63 114.64,116.3 105.05,211.5 473.13,248.4 485.65,485.9 88.54,-64.3 202.98,32.9 275.41,115.7 72.43,82.8 217.43,156.2 276.85,63.6 -2.81,-46.3 -4.19,-93.1 -6.74,-139.8 131.01,12.6 263.72,26.4 395.32,38.9 -53.21,-27.1 -90.09,-78.3 -99.01,-137.3 -15.27,-101.1 54.32,-195.5 155.4,-210.7 22.33,-3.4 45.14,-2.7 67.19,2.1 -10.17,-67.3 -79.52,-109.9 -141.18,-141.3 -154.97,-83.8 -320.34,-169.1 -490.01,-195.6 l 25.51,-82.9 c -4.23,-1.2 -8.67,-1.7 -13.07,-1.3 -104.61,5.6 -202.62,96.5 -314.62,98.7 -641.05,13 742.31,-670.4 -265.26,-518.2 -8.26,1.3 -16.63,2.8 -24.76,4.5 40.14,328.6 -238.77,104.2 -342.6,-24.9 -21.72,-27 -1101.29,-1076.9 -1162.41,-1106.6 -88.71,-43.8 -194.85,-26.6 -292.62,-41.2 -97.78,-14.6 -204.7,-93.7 -180.88,-189.8 -8.12,-1.2 -16.42,-1.2 -24.54,0 -41.3,6.3 -71.8,41.9 -71.57,83.7 -214.23,-300 -375.3,-635.9 -475.04,-990.8 73.39,-69.5 176.02,48.6 206.75,144.9 30.72,96.3 137.57,212.6 208.97,141.9 -39.91,-139.3 -79.9,-277 -119.52,-416.3 -4.25,-10 -7.22,-20.4 -8.83,-31 -2.53,-16.8 -1.67,-33.9 2.54,-50.2 11.39,-31.7 43.58,-50.7 66.42,-76 63.41,-74 36.71,-185.3 26.43,-281.1 -11.94,-118.9 6.93,-239 54.57,-348.5 -2.8,21.1 -3.9,41.6 -5.24,62.5 15.85,-4.5 32.12,-8 48.4,-10.4 97.13,-14.7 196.27,6.5 278.97,59.4 50.58,33.4 95.86,79.3 154.86,91.1 58.99,11.7 121.6,-12.1 177.79,-36.8 l 460.22,-324.8 c 50.49,-82.2 75.55,-180 139.7,-251.2 l 564.45,-324.9 c 102.77,-144.7 102.35,-163.7 43.05,-332.1 l -46.19,-233.9 c 64.74,-9.8 110.04,-106.5 54.66,-141.9 l 450.91,101.4 c 159.08,-35.7 292.7,-335.1 452.1,-372.66 -65.53,-231.54 426.22,-319.92 380.46,-555.37"
           style="fill:#4abb6d;fill-opacity:1;fill-rule:evenodd;stroke:none"
           id="path3768"
           inkscape:connector-curvature="0" /></g><g
         id="g3770"
         transform="scale(1.82369)"><path
           d="m 8761.53,15809.3 -55.66,4.6 c -67.69,5.6 -130.68,97.9 -120.53,165.1 8.55,56.6 92.2,50.6 112.21,104.3 l 41.57,111.4 c 29.29,85.5 149.74,85.8 253.55,96.9 77.98,8.4 155.02,-18.9 230.11,-45.4 12.51,-41.5 15.65,-85.3 9.17,-128.2 -2.94,-19.6 -0.96,-43.1 -14.68,-57.3 l -253.41,-260.9 -187.29,14.1 z m 0,9 v 0 0"
           style="fill:#4abb6d;fill-opacity:1;fill-rule:evenodd;stroke:none"
           id="path3772"
           inkscape:connector-curvature="0" /></g><g
         id="g3774"
         transform="scale(1.85682)"><path
           d="m 9472.08,16285.8 1425.82,14.2 c 609.8,-72.9 900.9,-143.3 1510.7,-216.2 l -457.4,-167.7 c -123.3,-46.3 -265.1,-90.9 -385.7,-36 -13.7,-105.6 57.2,-203.7 161.7,-223.8 -272.4,-116.5 -594.8,93.4 -877.7,3.8 -118.6,-37.7 -222.8,-126.7 -347.5,-127.6 -71.7,-0.8 -141,29.2 -213.9,24.5 -120.5,-8 -210.9,-107.5 -309.81,-177 -113.66,-80.3 -269.7,-123.3 -392.64,-57 -122.94,66.3 -161.63,268.5 -43.9,342.9 57.9,36.7 132.4,33 197.43,55.2 292.72,99.8 -62.63,123 -73.87,143.6 -14.35,26.4 -171.24,3.1 -183.28,33.1 z m -129.3,-190.3 v 0 0"
           style="fill:#4abb6d;fill-opacity:1;fill-rule:evenodd;stroke:none"
           id="path3776"
           inkscape:connector-curvature="0" /></g><g
         id="g3778"
         transform="scale(1.98753)"><path
           d="m 14124.6,11104.7 c 11.9,-2.1 306.5,-224.7 310.8,-236 183.8,-478 418.7,-798.1 557.4,-1292.89 3.6,-13 14.5,-22.69 27.8,-24.7 12.1,-1.82 24.2,2.92 31.8,12.44 37.7,45.73 87.3,80.28 143.3,99.82 57.5,20.67 119.3,23.29 178.9,38.2 162.5,42.97 283.9,178.48 309,344.63 25.3,167.3 -52,333.6 -196.1,422.2 -69.4,42.5 -153.2,65.5 -216.3,119.1 -63.1,53.6 -100.3,154.8 -45.5,217.2 51.1,58.9 151.3,42.4 214.5,-5.2 63.2,-47.6 104.8,-119.7 164.2,-172.4 42.1,-38.4 93.5,-68.5 140.2,-102.7 251,-198.9 264.7,-567.03 275.2,-887.98 5.5,-165.95 15.1,-331.26 30.9,-495.05 9.7,54.1 18.9,108.44 27.2,163.14 222.1,1470.19 -127,2894.79 -880.7,4048.99 -37,5.1 -63.5,8.6 -71.6,9.9 v 0 c -5.6,7.9 -14.3,13.3 -23.9,14.7 -0.4,0.1 -0.7,0.1 -1.1,0.2 -1.9,0.2 -3.9,0.5 -5.9,0.8 -14.4,2.1 -28.7,6.1 -42.2,11.6 -94.6,35.8 -157.4,122.2 -232.6,189.5 -99.1,87.1 -221.4,144.2 -352,163.9 -72,10.9 -145.3,10.3 -217.1,-1.8 -3.3,-0.5 -6.7,-0.5 -10,0.1 -18.8,2.8 -31.7,20.3 -28.9,39.1 0.7,4.5 2.4,8.8 4.6,12.7 25.1,43.1 259.6,137.2 267.1,186.4 1.1,7.7 -207.6,-21.8 -215.2,-23.2 l -31.6,-5.9 -679.7,515.1 c -256.6,44.1 -471,-423.1 -659.5,-146.9 -97.4,-18.5 -59.5,24.8 -147.6,-20.6 -88.1,-45.4 -293.6,-206 -233.8,-285.4 49.8,-67.6 145.8,-65.8 226.7,-86.2 75.4,-19 151.6,-104.5 112.6,-167.1 -4.7,-6.5 -11.2,-13.1 -19.2,-13.1 l -738.3,-5.2 -258.7,-152.1 c -8.2,-4.8 0.8,-19.1 6.9,-26.3 99.2,-119.1 28.9,-224.6 -18.8,-379.9 -4.1,-15.3 -59.9,-139.7 22.5,-217.8 81.7,-77.5 -246.9,331.8 -521.9,215.9 l -45.3,-377.1 c -30,-175.2 -45.1,-356.8 130.9,-380.9 120.1,-18.2 249.4,31.6 362.7,-0.5 1.4,-0.3 2.7,-0.6 4.1,-0.8 15.9,-2.4 31.2,6.8 36.6,21.9 33.1,103.7 121.3,182.2 209.3,248.3 188.5,139.5 392.4,85.7 560.4,155.3 65.9,-40.5 213.9,-110.4 265.7,-167.9 106.8,-118.5 217.8,-233.4 325.8,-351.1 5.3,-5.8 12.4,-9.6 20.2,-10.8 9.3,-1.4 18.7,1.1 26.2,6.7 30.5,22.6 61.1,45.1 91.7,67.7 7.4,5.7 16.8,8.2 26.1,6.8 9.2,-1.4 17.5,-6.5 22.8,-14.2 l 144.9,-207 c 5.4,-7.7 13.8,-12.9 23.2,-14.4 6.6,-1 13.5,0 19.6,2.8 18.7,8.9 37.7,17.4 56.6,26 6.2,2.8 13,3.8 19.7,2.8 14,-2.1 25.3,-12.6 28.4,-26.4 l 9.7,-42.2 c 3.2,-13.9 14.5,-24.4 28.6,-26.5 17.3,-2.6 33.9,8.1 38.6,25 5.3,19 10.9,38 16.2,57.3 4.5,16.7 20.8,27.4 37.8,24.8 0.3,-0.1 0.7,-0.1 1,-0.2 76.6,-13.2 155.7,-23.5 229.5,0.9 85.5,25.7 155.4,110.8 135,197.1 -10.5,45.3 -45.8,85.5 -46.9,132.4 -2.9,93.7 136.4,136.2 214.6,82 47.9,-36.9 82.6,-88.3 98.9,-146.5 4.1,-12.4 14.8,-21.5 27.7,-23.4 16.1,-2.5 31.6,6.6 37.5,21.7 l 20.4,54 c 5.6,15.3 21.3,24.6 37.4,22.2 13.6,-2.1 24.7,-12 28.2,-25.3 43.5,-160 106.1,-314.9 185.9,-460.2 3.2,-6.4 4.4,-13.6 3.3,-20.6 -2.8,-18.7 -20.2,-31.5 -38.8,-28.7 -1.2,0.2 -2.4,0.5 -3.6,0.8 -57.2,15.9 -115.7,28.6 -174.4,37.5 -168.1,25.4 -339.6,20.7 -506,-13.5 -14.2,-3.3 -24.9,-14.8 -27,-29.1 -1.3,-8.6 0.6,-17.5 5.5,-24.8 66.5,-97.8 171,-163.6 288,-181.2 4.5,-0.7 9,-1.3 13.5,-1.9 61.6,-7.6 131.2,-4 172.4,-49.9 30.5,-35.1 32.3,-84.8 32.2,-130.2 1.5,-101.7 2.9,-202.6 4.2,-302.9 0,-1.8 0.8,-4 -0.4,-5.4 -14.6,-16.8 -488.5,17.9 -437.2,2.6 l 35.2,-210.2"
           style="fill:#4abb6d;fill-opacity:1;fill-rule:evenodd;stroke:none"
           id="path3780"
           inkscape:connector-curvature="0" /></g><g
         id="g3782"
         transform="scale(1.80732)"><path
           d="m 15482.4,12188.1 c -5.3,17.5 -5.1,251.6 -9.8,255 -136.3,101 -327.7,119.5 -501.4,149.3 -181.3,32.5 -383.9,110 -456.2,270.4 -5.2,12.4 -16.4,21.1 -29.7,23.1 -13.2,2 -26.6,-3 -35.2,-13.3 -49.5,-58.2 -82,-129.2 -93.4,-204.8 -1.1,-7.4 -2,-14.8 -2.7,-22.2 -0.1,-0.7 -0.2,-1.4 -0.3,-2.1 -3.1,-20.7 -22.4,-34.9 -43,-31.8 -3.3,0.5 -6.5,1.4 -9.6,2.8 -176.8,76 -361,182.1 -401.7,359.6 -3.8,13.9 -15.4,24.4 -29.7,26.6 -3.1,0.4 -6.2,0.5 -9.3,0.2 -162.6,-13.7 -328.5,115.1 -346.5,278.3 -7.3,60.9 -0.8,133.4 -47.5,172.5 -20.9,13.5 -44.5,22.5 -69.2,26.2 -12.5,1.9 -25.2,2.4 -37.8,1.6 -316.1,11 -630.5,23.2 -945.1,34 -171.6,5.3 -349.5,11.2 -510.7,-49 -154.1,-56.5 -291.3,-189.1 -310.6,-350.6 -0.1,-0.7 -0.2,-1.3 -0.3,-2 -1.9,-13 -10.4,-24 -22.4,-29.2 -301.9,-126.9 -369.9,-74.5 -572.6,-332 -64.7,-79.9 -61.1,-421.7 -56.1,-524.9 2.7,-79.4 -221.5,-164.6 -217.2,-242.9 7.8,-134.5 -85.7,-249.2 -136.5,-373.3 l 13.2,-943.6 c 102.4,-147 506.1,-421.1 682.4,-454.9 109.5,-21 286.9,149.8 395.9,174.6 283.7,64.7 512.7,-61.8 800.7,-105.3 8.5,-1.3 16.9,-2.6 25.3,-3.9 20.3,-3.4 34.1,-22.4 31.1,-42.8 -0.4,-2.4 -1,-4.8 -1.9,-7.2 -21.3,-58.3 27.9,-145.9 95.8,-171.1 84.9,-31.9 186.3,-17.6 267.6,-60.71 165.9,-89.04 127.1,-324.38 33.9,-498.01 -2.3,-4.05 -3.9,-8.5 -4.6,-13.11 -3.1,-20.66 11.1,-39.94 31.8,-43.06 2.3,-0.35 4.6,-0.48 7,-0.4 v 0 c 2.2,0.05 4.4,-0.09 6.6,-0.42 21,-3.17 35.4,-22.75 32.3,-43.73 -0.7,-4.58 -2.3,-9.02 -4.5,-13.06 l -45,-78.09 c -2.4,-4.1 -4.1,-8.64 -4.8,-13.36 -2.5,-16.59 6.5,-32.78 21.9,-39.44 229,-99.13 28.2,-423.37 -69,-664.85 -101.4,-255.77 -56.3,-495.07 -101.8,-766.47 -22.5,-149.04 0,-300.4 24.6,-448.48 59.2,-367.63 118.2,-736.12 177,-1105.47 2.3,-15.55 14,-28.06 29.3,-31.33 302.9,-60.71 544.1,301.28 852.8,381.68 118.9,31.64 251.9,21.71 351.9,91.79 37.3,30.07 62,73.09 69.2,120.48 5.7,37.69 0,76.23 -16.3,110.65 -4.2,7.27 -5.8,15.75 -4.5,24.04 2.2,14.47 12.6,26.33 26.7,30.28 119.7,30.95 211.6,127.16 236.9,248.18 8,41.23 8.1,83.65 18.7,124.19 18.8,56.95 287.5,430.11 330.7,474.99 279.2,290.49 162.5,446.43 364.2,792.56 53.3,93.28 204.4,52.81 257.6,146.1 372.1,299.37 620.7,630.68 602.6,1036.4 l 168.8,286.55 c 2.5,4.2 4.1,8.8 4.9,13.7 3.1,20.6 -11.1,39.9 -31.8,43 -4.2,0.7 -8.5,0.6 -12.7,-0.2 -100.5,-20.1 -222.6,27.9 -295.3,108.9 -104,114.9 -143.6,272.1 -218.2,407.7 -63,116.6 -155.1,225.3 -173,358.3 -10.6,76.3 5.4,154.3 5.2,232.3 -4.3,169 -92.1,322.4 -143.8,482.7 -44.7,137.3 -58.2,302.9 17.1,419.7 8.1,12.8 22.7,19.5 37.6,17.6 l 0.5,1 -0.1,0.1"
           style="fill:#4abb6d;fill-opacity:1;fill-rule:evenodd;stroke:none"
           id="path3784"
           inkscape:connector-curvature="0" /></g><g
         id="g3786"
         transform="scale(1.81342)"><path
           d="m 16182,7921.72 -114.1,-57.53 c 2.4,-23.62 -97.4,111.19 -101,87.68 -16.7,-110.62 -18.8,-208.29 -106,-388.86 -190.8,-395.35 -1114.2,-612.74 -733.1,-881.89 19.6,-11.99 359.2,139.97 381.6,134.86 93.7,-21.42 197,-41.08 282.5,2.3 245.8,124.91 99.8,586.06 343.4,715.78 34.6,18.01 76.2,28.71 98.6,61.06 66.1,96.07 -109.1,225.91 -51.9,326.6"
           style="fill:#4abb6d;fill-opacity:1;fill-rule:evenodd;stroke:none"
           id="path3788"
           inkscape:connector-curvature="0" /></g></g></g></svg>